function data()
return { 
		subMeshes = {
			{ 
				indices = { 
					normal = { 
						count = 38400,
						offset = 447016,
					},
					position = { 
						count = 38400,
						offset = 370216,
					},
					tangent = { 
						count = 38400,
						offset = 485416,
					},
					uv0 = { 
						count = 38400,
						offset = 408616,
					},
				},
			},
			{ 
				indices = { 
					normal = { 
						count = 720,
						offset = 525256,
					},
					position = { 
						count = 720,
						offset = 523816,
					},
					tangent = { 
						count = 720,
						offset = 525976,
					},
					uv0 = { 
						count = 720,
						offset = 524536,
					},
				},
			},
		},
		vertexAttr = { 
			normal = { 
				count = 117360,
				numComp = 3,
				offset = 96376,
			},
			position = { 
				count = 49800,
				numComp = 3,
				offset = 0,
			},
			tangent = { 
				count = 156480,
				numComp = 4,
				offset = 213736,
			},
			uv0 = { 
				count = 46576,
				numComp = 2,
				offset = 49800,
			},
		},
	}
end